<svg width="100" height="24" viewBox="0 0 100 24" fill="none" xmlns="http://www.w3.org/2000/svg">
<path d="M14.6836 4.11328H9.5625V18H5.44922V4.11328H0.421875V0.9375H14.6836V4.11328ZM21.3281 18.2344C19.3828 18.2344 17.8086 17.6562 16.6055 16.5C15.4023 15.3359 14.8008 13.8242 14.8008 11.9648V11.6367C14.8008 10.3398 15.0391 9.19531 15.5156 8.20312C16 7.21094 16.7031 6.44531 17.625 5.90625C18.5469 5.35938 19.6406 5.08594 20.9062 5.08594C22.6875 5.08594 24.0938 5.64062 25.125 6.75C26.1562 7.85156 26.6719 9.39062 26.6719 11.3672V12.9023H18.8203C18.9609 13.6133 19.2695 14.1719 19.7461 14.5781C20.2227 14.9844 20.8398 15.1875 21.5977 15.1875C22.8477 15.1875 23.8242 14.75 24.5273 13.875L26.332 16.0078C25.8398 16.6875 25.1406 17.2305 24.2344 17.6367C23.3359 18.0352 22.3672 18.2344 21.3281 18.2344ZM20.8828 8.13281C19.7266 8.13281 19.0391 8.89844 18.8203 10.4297H22.8047V10.125C22.8203 9.49219 22.6602 9.00391 22.3242 8.66016C21.9883 8.30859 21.5078 8.13281 20.8828 8.13281ZM34.9102 14.4375C34.9102 14.1016 34.7344 13.832 34.3828 13.6289C34.0312 13.4258 33.3633 13.2148 32.3789 12.9961C31.3945 12.7773 30.582 12.4922 29.9414 12.1406C29.3008 11.7812 28.8125 11.3477 28.4766 10.8398C28.1406 10.332 27.9727 9.75 27.9727 9.09375C27.9727 7.92969 28.4531 6.97266 29.4141 6.22266C30.375 5.46484 31.6328 5.08594 33.1875 5.08594C34.8594 5.08594 36.2031 5.46484 37.2188 6.22266C38.2344 6.98047 38.7422 7.97656 38.7422 9.21094H34.7812C34.7812 8.19531 34.2461 7.6875 33.1758 7.6875C32.7617 7.6875 32.4141 7.80469 32.1328 8.03906C31.8516 8.26562 31.7109 8.55078 31.7109 8.89453C31.7109 9.24609 31.8828 9.53125 32.2266 9.75C32.5703 9.96875 33.1172 10.1484 33.8672 10.2891C34.625 10.4297 35.2891 10.5977 35.8594 10.793C37.7656 11.4492 38.7188 12.625 38.7188 14.3203C38.7188 15.4766 38.2031 16.418 37.1719 17.1445C36.1484 17.8711 34.8203 18.2344 33.1875 18.2344C32.1016 18.2344 31.1328 18.0391 30.2812 17.6484C29.4297 17.2578 28.7656 16.7266 28.2891 16.0547C27.8125 15.3828 27.5742 14.6758 27.5742 13.9336H31.2656C31.2812 14.5195 31.4766 14.9492 31.8516 15.2227C32.2266 15.4883 32.707 15.6211 33.293 15.6211C33.832 15.6211 34.2344 15.5117 34.5 15.293C34.7734 15.0742 34.9102 14.7891 34.9102 14.4375ZM45.1758 2.16797V5.32031H47.2617V8.0625H45.1758V13.8633C45.1758 14.3398 45.2617 14.6719 45.4336 14.8594C45.6055 15.0469 45.9453 15.1406 46.4531 15.1406C46.8438 15.1406 47.1719 15.1172 47.4375 15.0703V17.8945C46.7266 18.1211 45.9844 18.2344 45.2109 18.2344C43.8516 18.2344 42.8477 17.9141 42.1992 17.2734C41.5508 16.6328 41.2266 15.6602 41.2266 14.3555V8.0625H39.6094V5.32031H41.2266V2.16797H45.1758ZM51.3281 16.7812H59.7539V18H49.875V0.9375H51.3281V16.7812ZM61.4297 11.4727C61.4297 10.2539 61.6641 9.15625 62.1328 8.17969C62.6094 7.20312 63.2773 6.44531 64.1367 5.90625C65.0039 5.35938 65.9844 5.08594 67.0781 5.08594C68.7656 5.08594 70.1328 5.67969 71.1797 6.86719C72.2266 8.04688 72.75 9.61328 72.75 11.5664V11.8594C72.75 13.0859 72.5117 14.1914 72.0352 15.1758C71.5664 16.1523 70.9023 16.9062 70.043 17.4375C69.1836 17.9688 68.2031 18.2344 67.1016 18.2344C65.4219 18.2344 64.0547 17.6445 63 16.4648C61.9531 15.2773 61.4297 13.707 61.4297 11.7539V11.4727ZM62.8359 11.8594C62.8359 13.375 63.2266 14.6211 64.0078 15.5977C64.7969 16.5664 65.8281 17.0508 67.1016 17.0508C68.3672 17.0508 69.3906 16.5664 70.1719 15.5977C70.9609 14.6211 71.3555 13.3359 71.3555 11.7422V11.4727C71.3555 10.5039 71.1758 9.61719 70.8164 8.8125C70.457 8.00781 69.9531 7.38672 69.3047 6.94922C68.6562 6.50391 67.9141 6.28125 67.0781 6.28125C65.8281 6.28125 64.8086 6.77344 64.0195 7.75781C63.2305 8.73438 62.8359 10.0156 62.8359 11.6016V11.8594ZM75.0938 11.543C75.0938 9.55859 75.5312 7.98828 76.4062 6.83203C77.2891 5.66797 78.4844 5.08594 79.9922 5.08594C81.7188 5.08594 83.0312 5.77344 83.9297 7.14844L84 5.32031H85.3125V17.7422C85.3125 19.375 84.8555 20.668 83.9414 21.6211C83.0273 22.5742 81.7891 23.0508 80.2266 23.0508C79.3438 23.0508 78.5 22.8516 77.6953 22.4531C76.8984 22.0625 76.2695 21.5391 75.8086 20.8828L76.5938 20.0391C77.5859 21.2578 78.7656 21.8672 80.1328 21.8672C81.3047 21.8672 82.2188 21.5195 82.875 20.8242C83.5312 20.1367 83.8711 19.1797 83.8945 17.9531V16.3594C82.9961 17.6094 81.6875 18.2344 79.9688 18.2344C78.5 18.2344 77.3203 17.6484 76.4297 16.4766C75.5391 15.3047 75.0938 13.7227 75.0938 11.7305V11.543ZM76.5117 11.7891C76.5117 13.4062 76.8359 14.6836 77.4844 15.6211C78.1328 16.5508 79.0469 17.0156 80.2266 17.0156C81.9531 17.0156 83.1758 16.2422 83.8945 14.6953V8.80078C83.5664 7.98828 83.0938 7.37109 82.4766 6.94922C81.8594 6.51953 81.1172 6.30469 80.25 6.30469C79.0703 6.30469 78.1523 6.76953 77.4961 7.69922C76.8398 8.62109 76.5117 9.98438 76.5117 11.7891ZM88.1953 11.4727C88.1953 10.2539 88.4297 9.15625 88.8984 8.17969C89.375 7.20312 90.043 6.44531 90.9023 5.90625C91.7695 5.35938 92.75 5.08594 93.8438 5.08594C95.5312 5.08594 96.8984 5.67969 97.9453 6.86719C98.9922 8.04688 99.5156 9.61328 99.5156 11.5664V11.8594C99.5156 13.0859 99.2773 14.1914 98.8008 15.1758C98.332 16.1523 97.668 16.9062 96.8086 17.4375C95.9492 17.9688 94.9688 18.2344 93.8672 18.2344C92.1875 18.2344 90.8203 17.6445 89.7656 16.4648C88.7188 15.2773 88.1953 13.707 88.1953 11.7539V11.4727ZM89.6016 11.8594C89.6016 13.375 89.9922 14.6211 90.7734 15.5977C91.5625 16.5664 92.5938 17.0508 93.8672 17.0508C95.1328 17.0508 96.1562 16.5664 96.9375 15.5977C97.7266 14.6211 98.1211 13.3359 98.1211 11.7422V11.4727C98.1211 10.5039 97.9414 9.61719 97.582 8.8125C97.2227 8.00781 96.7188 7.38672 96.0703 6.94922C95.4219 6.50391 94.6797 6.28125 93.8438 6.28125C92.5938 6.28125 91.5742 6.77344 90.7852 7.75781C89.9961 8.73438 89.6016 10.0156 89.6016 11.6016V11.8594Z" fill="white"/>
</svg>
